<svg width="22" height="24" viewBox="0 0 22 24" fill="#71347b" xmlns="http://www.w3.org/2000/svg">
<path d="M8.30815 2.44586C8.00129 2.63411 7.75562 2.75272 7.509 2.87602C6.58748 3.36737 5.7272 3.79754 4.80568 4.28795C4.74167 4.32431 4.68966 4.37863 4.6562 4.44421C4.62274 4.5098 4.60923 4.58376 4.61736 4.65693V23.2755C4.61736 23.5212 4.55624 23.7057 4.31057 23.7669C3.85464 23.9552 3.36009 24.0312 2.86866 23.9884C2.37722 23.9457 1.90328 23.7854 1.48672 23.5212C1.18046 23.3059 0.919692 23.0323 0.7194 22.716C0.519108 22.3997 0.383245 22.047 0.319539 21.6782C0.16509 20.682 0.102006 19.6737 0.131213 18.666C0.0700298 13.7497 0.00884184 8.77315 0.00884184 3.85683C-0.0391441 3.07511 0.108741 2.29379 0.439038 1.58366C0.717224 0.990161 1.19816 0.515478 1.79523 0.245067C2.39231 -0.0253429 3.06627 -0.0737303 3.69584 0.108649C4.56928 0.371444 5.39798 0.764987 6.15361 1.27586C6.82945 1.64484 7.50528 2.01287 8.11994 2.38186C8.18583 2.32255 8.24697 2.38373 8.30815 2.44586Z" fill="#71347b"/>
<path d="M8.42562 21.3722V16.0257C8.42418 15.9535 8.44058 15.882 8.47342 15.8176C8.50627 15.7533 8.55449 15.698 8.61384 15.6568C10.7035 14.4886 12.7931 13.3214 14.8206 12.1542C15.3732 11.8464 15.9267 11.5396 16.5404 11.1706C16.1852 10.9424 15.8157 10.7371 15.4343 10.5559C14.5128 10.0025 13.5914 9.51114 12.6699 8.95578C12.6245 8.92494 12.5708 8.90844 12.5159 8.90844C12.461 8.90844 12.4075 8.92494 12.3621 8.95578C11.1949 9.6928 10.0889 10.3677 8.92074 11.1066C8.85956 11.1066 8.85957 11.1678 8.79745 11.1678V7.23511C8.7957 7.15404 8.81159 7.07356 8.8441 6.99927C8.87661 6.92499 8.92492 6.85867 8.98566 6.80494C10.0305 6.06792 11.0744 5.39302 12.058 4.65411C12.1147 4.62387 12.1778 4.60806 12.242 4.60806C12.3062 4.60806 12.3695 4.62387 12.4261 4.65411C13.838 5.45326 15.3139 6.31358 16.7277 7.11179C17.7104 7.66433 18.6941 8.21779 19.7399 8.77033C20.4878 9.15972 21.1069 9.75733 21.5226 10.491C21.7844 10.9684 21.8896 11.5161 21.8234 12.0565C21.7572 12.597 21.5229 13.103 21.1536 13.5031C20.6679 14.0555 20.0846 14.5137 19.433 14.8548C18.021 15.6539 16.6675 16.5143 15.2546 17.3125C13.4728 18.3573 11.7521 19.34 9.97026 20.3848C9.40926 20.7576 8.91697 21.0607 8.42562 21.3722Z" fill="#71347b"/>
</svg>


