<svg width="144" height="31" viewBox="0 0 144 31" fill="none" xmlns="http://www.w3.org/2000/svg">
<path d="M36.0121 4.15191V7.29755H42.2228V10.4432H36.0121V15.3568H32V1.00037H43.0567V4.146H36.0121V4.15191Z" fill="#71347B"/>
<path d="M45.1781 1.00012H49.1902V15.2915H45.1781V1.00012Z" fill="#71347B"/>
<path d="M58.2814 11.525H56.0829V15.2915H52.0708V1.00012H58.5089C62.3694 1.00012 64.7953 2.99866 64.7953 6.29803C64.8769 8.23153 63.7981 10.0231 62.0661 10.8332L65.0985 15.2856H60.859L58.2814 11.5191V11.525ZM58.3572 4.15167H56.1587V8.29657H58.3572C60.0251 8.29657 60.859 7.5279 60.859 6.22116C60.7832 4.99129 60.0251 4.14576 58.3572 4.14576V4.15167Z" fill="#71347B"/>
<path d="M78.5005 12.1399V15.2915H67.2164V1.00012H78.2731V4.14576H71.1527V6.52863H77.4392V9.52644H71.1527V12.134H78.5005V12.1399Z" fill="#71347B"/>
<path d="M84.8617 4.15167V7.2973H91.0724V10.4429H84.8617V15.3565H80.8496V1.00012H91.9063V4.14576H84.8617V4.15167Z" fill="#71347B"/>
<path d="M93.9543 1.00012H97.9665V12.0571H104.708V15.2856H94.0302V1.00012H93.9543Z" fill="#71347B"/>
<path d="M106.453 1.00012H110.465V15.2915H106.453V1.00012Z" fill="#71347B"/>
<path d="M126.826 1.00012V15.2915H123.566L117.356 7.69346V15.2915H113.419V1.00012H116.679L122.89 8.59813V1.00012H126.826Z" fill="#71347B"/>
<path d="M135.236 10.1414L133.72 11.7556V15.3683H129.778V1.00012H133.714V6.91297L139.173 1.00012H143.564L137.808 7.2973L143.867 15.2915H139.248L135.23 10.1414H135.236Z" fill="#71347B"/>
<path d="M10.2276 3.05786C9.84856 3.28254 9.54532 3.44219 9.24208 3.59592C8.10492 4.21086 7.04357 4.74893 5.91225 5.36386C5.75479 5.45847 5.66732 5.64177 5.69065 5.82507V29.0921C5.69065 29.3996 5.61484 29.6302 5.31159 29.707C4.1686 30.186 2.86816 30.0736 1.83014 29.3996C1.0662 28.8556 0.553026 28.0278 0.389741 27.0936C0.203131 25.846 0.12732 24.5865 0.168141 23.333C0.0864993 17.1896 0.0106888 10.9692 0.0106888 4.81988C-0.047627 3.84426 0.133152 2.86273 0.541362 1.97581C1.24698 0.450292 2.9498 -0.336117 4.55349 0.136911C5.63233 0.46803 6.65286 0.958796 7.58591 1.59738C8.41983 2.05859 9.25374 2.51979 10.0118 2.98099C10.076 2.90412 10.1518 2.98099 10.2276 3.05786Z" fill="#71347B"/>
<path d="M10.3777 26.7094V20.022C10.3777 19.8387 10.4535 19.6672 10.5993 19.5608C13.171 18.1003 15.7427 16.6398 18.2503 15.1852C18.9326 14.8009 19.6149 14.4166 20.373 13.9554C19.9356 13.6716 19.4808 13.4114 19.0084 13.1867C17.8712 12.4949 16.7341 11.88 15.6028 11.1882C15.4861 11.1113 15.3403 11.1113 15.2237 11.1882C13.7833 12.1106 12.4245 12.9561 10.9841 13.8785C10.9083 13.8785 10.9083 13.9554 10.8325 13.9554V9.0418C10.8267 8.84076 10.9083 8.63973 11.0541 8.50373C12.3429 7.58133 13.6258 6.73579 14.8388 5.81339C14.9788 5.73652 15.1537 5.73652 15.2937 5.81339C17.0373 6.81266 18.8568 7.8888 20.5946 8.88807C21.8076 9.57987 23.0205 10.2717 24.3035 10.9635C25.2249 11.4483 25.9888 12.1993 26.502 13.1158C27.1609 14.3397 26.9802 15.8534 26.0471 16.8763C25.4465 17.5681 24.7292 18.1417 23.9244 18.5674C22.1808 19.5667 20.5188 20.6428 18.781 21.6421C16.5825 22.9488 14.4656 24.1787 12.2671 25.4795C11.5848 25.9348 10.9783 26.325 10.3718 26.7094H10.3777Z" fill="#71347B"/>
<path d="M37.8447 28.3444H33.2899L32.5598 30.5001H29.4479L33.8636 18.2961H37.3058L41.7215 30.5001H38.5748L37.8447 28.3444ZM37.0798 26.0497L35.5673 21.5818L34.0722 26.0497H37.0798ZM52.3661 22.225C52.3661 22.932 52.2039 23.581 51.8794 24.1721C51.5549 24.7516 51.0565 25.221 50.3843 25.5803C49.7121 25.9396 48.8776 26.1192 47.8809 26.1192H46.0381V30.5001H43.0654V18.2961H47.8809C48.8545 18.2961 49.6773 18.4642 50.3495 18.8003C51.0217 19.1364 51.5259 19.6 51.862 20.191C52.1981 20.7821 52.3661 21.4601 52.3661 22.225ZM47.6549 23.7549C48.2228 23.7549 48.6458 23.6216 48.924 23.355C49.2021 23.0885 49.3412 22.7118 49.3412 22.225C49.3412 21.7383 49.2021 21.3616 48.924 21.095C48.6458 20.8285 48.2228 20.6952 47.6549 20.6952H46.0381V23.7549H47.6549ZM56.8866 18.2961V30.5001H53.9138V18.2961H56.8866ZM71.5042 18.2961V20.6778H68.2706V30.5001H65.2979V20.6778H62.0643V18.2961H71.5042ZM75.9689 20.6778V23.1464H79.95V25.4412H75.9689V28.1184H80.4715V30.5001H72.9961V18.2961H80.4715V20.6778H75.9689ZM86.8172 30.6218C85.9247 30.6218 85.1251 30.4769 84.4181 30.1872C83.7111 29.8975 83.1432 29.4686 82.7144 28.9007C82.2972 28.3328 82.077 27.649 82.0538 26.8494H85.2178C85.2641 27.3014 85.4206 27.649 85.6872 27.8924C85.9537 28.1242 86.3014 28.2401 86.7302 28.2401C87.1706 28.2401 87.5183 28.1416 87.7733 27.9446C88.0283 27.736 88.1558 27.452 88.1558 27.0927C88.1558 26.7914 88.0515 26.5422 87.8429 26.3452C87.6458 26.1482 87.3966 25.9859 87.0953 25.8584C86.8056 25.7309 86.3883 25.5861 85.8436 25.4238C85.0555 25.1804 84.4123 24.937 83.9139 24.6937C83.4156 24.4503 82.9867 24.091 82.6275 23.6158C82.2682 23.1406 82.0885 22.5206 82.0885 21.7557C82.0885 20.6199 82.5 19.7333 83.3229 19.0958C84.1457 18.4468 85.2178 18.1223 86.539 18.1223C87.8834 18.1223 88.9671 18.4468 89.7899 19.0958C90.6128 19.7333 91.0532 20.6257 91.1112 21.773H87.895C87.8718 21.379 87.727 21.0719 87.4604 20.8517C87.1938 20.6199 86.8519 20.504 86.4347 20.504C86.0754 20.504 85.7857 20.6025 85.5655 20.7995C85.3453 20.9849 85.2352 21.2573 85.2352 21.6166C85.2352 22.0106 85.4206 22.3178 85.7915 22.538C86.1623 22.7582 86.7418 22.9958 87.5299 23.2507C88.318 23.5173 88.9555 23.7723 89.4422 24.0157C89.9406 24.259 90.3694 24.6125 90.7287 25.0761C91.088 25.5397 91.2676 26.1366 91.2676 26.8667C91.2676 27.5621 91.088 28.1938 90.7287 28.7617C90.381 29.3296 89.8711 29.7816 89.1989 30.1177C88.5266 30.4538 87.7327 30.6218 86.8172 30.6218ZM101.876 18.2961V20.6778H98.6428V30.5001H95.67V20.6778H92.4365V18.2961H101.876ZM116.353 22.225C116.353 22.932 116.191 23.581 115.866 24.1721C115.542 24.7516 115.043 25.221 114.371 25.5803C113.699 25.9396 112.865 26.1192 111.868 26.1192H110.025V30.5001H107.052V18.2961H111.868C112.841 18.2961 113.664 18.4642 114.336 18.8003C115.009 19.1364 115.513 19.6 115.849 20.191C116.185 20.7821 116.353 21.4601 116.353 22.225ZM111.642 23.7549C112.21 23.7549 112.633 23.6216 112.911 23.355C113.189 23.0885 113.328 22.7118 113.328 22.225C113.328 21.7383 113.189 21.3616 112.911 21.095C112.633 20.8285 112.21 20.6952 111.642 20.6952H110.025V23.7549H111.642ZM124.124 30.5001L121.586 25.8932H120.873V30.5001H117.901V18.2961H122.89C123.852 18.2961 124.669 18.4642 125.341 18.8003C126.025 19.1364 126.535 19.6 126.871 20.191C127.207 20.7705 127.375 21.4196 127.375 22.1381C127.375 22.9494 127.144 23.6738 126.68 24.3112C126.228 24.9486 125.556 25.4006 124.663 25.6672L127.48 30.5001H124.124ZM120.873 23.7897H122.716C123.261 23.7897 123.667 23.6564 123.933 23.3898C124.211 23.1233 124.35 22.7466 124.35 22.2598C124.35 21.7962 124.211 21.4311 123.933 21.1646C123.667 20.898 123.261 20.7647 122.716 20.7647H120.873V23.7897ZM135.013 30.6218C133.866 30.6218 132.811 30.3553 131.849 29.8221C130.899 29.289 130.14 28.5473 129.572 27.5969C129.015 26.6349 128.737 25.5571 128.737 24.3634C128.737 23.1696 129.015 22.0976 129.572 21.1472C130.14 20.1968 130.899 19.4551 131.849 18.922C132.811 18.3888 133.866 18.1223 135.013 18.1223C136.161 18.1223 137.209 18.3888 138.16 18.922C139.122 19.4551 139.875 20.1968 140.42 21.1472C140.976 22.0976 141.254 23.1696 141.254 24.3634C141.254 25.5571 140.976 26.6349 140.42 27.5969C139.863 28.5473 139.11 29.289 138.16 29.8221C137.209 30.3553 136.161 30.6218 135.013 30.6218ZM135.013 27.9098C135.987 27.9098 136.763 27.5853 137.343 26.9363C137.934 26.2873 138.229 25.4296 138.229 24.3634C138.229 23.2855 137.934 22.4279 137.343 21.7904C136.763 21.1414 135.987 20.8169 135.013 20.8169C134.028 20.8169 133.24 21.1356 132.649 21.773C132.069 22.4105 131.78 23.2739 131.78 24.3634C131.78 25.4412 132.069 26.3046 132.649 26.9537C133.24 27.5911 134.028 27.9098 135.013 27.9098Z" fill="#E16E04"/>
</svg>
